<svg width="300" height="300" viewBox="0 0 300 300" fill="none" xmlns="http://www.w3.org/2000/svg">
<path d="M237.5 250C244.404 250 250 244.404 250 237.5C250 230.596 244.404 225 237.5 225C230.596 225 225 230.596 225 237.5C225 244.404 230.596 250 237.5 250Z" fill="#0F0F0F"/>
<path d="M200 225H50V250H200V225Z" fill="#0F0F0F"/>
<path d="M237.5 75C244.404 75 250 69.4036 250 62.5C250 55.5964 244.404 50 237.5 50C230.596 50 225 55.5964 225 62.5C225 69.4036 230.596 75 237.5 75Z" fill="#0F0F0F"/>
<path d="M200 50H50V75H200V50Z" fill="#0F0F0F"/>
<path d="M275 125C281.63 125 287.989 122.366 292.678 117.678C297.366 112.989 300 106.63 300 100V25C300 18.3696 297.366 12.0107 292.678 7.32233C287.989 2.63392 281.63 0 275 0H25C18.3696 0 12.0107 2.63392 7.32233 7.32233C2.63392 12.0107 0 18.3696 0 25V100C0 106.63 2.63392 112.989 7.32233 117.678C12.0107 122.366 18.3696 125 25 125H50V175H25C18.3696 175 12.0107 177.634 7.32233 182.322C2.63392 187.011 0 193.37 0 200V275C0 281.63 2.63392 287.989 7.32233 292.678C12.0107 297.366 18.3696 300 25 300H275C281.63 300 287.989 297.366 292.678 292.678C297.366 287.989 300 281.63 300 275V200C300 193.37 297.366 187.011 292.678 182.322C287.989 177.634 281.63 175 275 175H250V125H275ZM25 25H275V100H25V25ZM275 275H25V200H275V275ZM225 175H75V125H225V175Z" fill="#0F0F0F"/>
</svg>
