<svg width="259" height="259" viewBox="0 0 259 259" fill="none" xmlns="http://www.w3.org/2000/svg">
<circle cx="129.5" cy="129.5" r="129.5" fill="#24202A"/>
<path fill-rule="evenodd" clip-rule="evenodd" d="M196.5 167C196.5 167.964 196.315 168.876 196.049 169.746L153.75 124.25L196.5 91V167ZM70.891 176.244L113.755 130.567L130 142.846L145.542 130.491L189.109 176.244C188.43 176.4 71.5702 176.4 70.891 176.244ZM63.5 167V91L106.25 124.25L63.9513 169.746C63.6853 168.876 63.5 167.964 63.5 167ZM191.75 81.5L130 129L68.25 81.5H191.75ZM187 72H73C62.5072 72 54 80.5072 54 91V167C54 177.493 62.5072 186 73 186H187C197.493 186 206 177.493 206 167V91C206 80.5072 197.493 72 187 72Z" fill="#B7E305"/>
</svg>
