<svg width="300" height="300" viewBox="0 0 300 300" fill="none" xmlns="http://www.w3.org/2000/svg">
<path d="M82.7961 68.1818C82.7961 60.6507 88.8137 54.5454 96.237 54.5454C103.66 54.5454 109.678 60.6507 109.678 68.1818V81.8181H123.119C130.542 81.8181 136.56 87.9233 136.56 95.4545C136.56 102.986 130.542 109.091 123.119 109.091H109.678V122.727C109.678 130.259 103.66 136.364 96.237 136.364C88.8137 136.364 82.7961 130.259 82.7961 122.727V109.091H69.3553C61.932 109.091 55.9144 102.986 55.9144 95.4545C55.9144 87.9233 61.932 81.8181 69.3553 81.8181H82.7961V68.1818Z" fill="#0F0F0F"/>
<path d="M217.205 68.1818C217.205 75.713 211.187 81.8181 203.764 81.8181C196.34 81.8181 190.323 75.713 190.323 68.1818C190.323 60.6507 196.34 54.5454 203.764 54.5454C211.187 54.5454 217.205 60.6507 217.205 68.1818Z" fill="#0F0F0F"/>
<path d="M203.764 136.364C211.187 136.364 217.205 130.259 217.205 122.727C217.205 115.196 211.187 109.091 203.764 109.091C196.34 109.091 190.323 115.196 190.323 122.727C190.323 130.259 196.34 136.364 203.764 136.364Z" fill="#0F0F0F"/>
<path d="M244.086 95.4547C244.086 102.986 238.069 109.091 230.646 109.091C223.222 109.091 217.205 102.986 217.205 95.4547C217.205 87.9235 223.222 81.8184 230.646 81.8184C238.069 81.8184 244.086 87.9235 244.086 95.4547Z" fill="#0F0F0F"/>
<path d="M176.882 109.091C184.306 109.091 190.323 102.986 190.323 95.4547C190.323 87.9235 184.306 81.8184 176.882 81.8184C169.459 81.8184 163.441 87.9235 163.441 95.4547C163.441 102.986 169.459 109.091 176.882 109.091Z" fill="#0F0F0F"/>
<path fill-rule="evenodd" clip-rule="evenodd" d="M17.9919 33.6018C25.8983 9.92959 48.9014 0 69.3549 0H230.646C251.099 0 274.101 9.92959 282.008 33.6015C292.456 64.8836 297.018 109.602 298.874 151.781C300.749 194.344 299.916 235.808 299.003 261.341C298.219 283.293 280.359 300 259.155 300H238.193C219.69 300 203.562 287.224 199.074 269.013L182.374 201.239C180.878 195.168 175.502 190.909 169.334 190.909H130.666C124.498 190.909 119.122 195.168 117.626 201.239L100.926 269.013C96.4381 287.224 80.3097 300 61.807 300H40.8453C19.64 300 1.78093 283.293 0.996778 261.341C0.0846408 235.808 -0.749028 194.344 1.12531 151.781C2.98272 109.602 7.54374 64.8839 17.9919 33.6018ZM69.3549 27.2727C55.9633 27.2727 46.407 33.5058 43.4515 42.3544C34.3174 69.7025 29.8264 111.073 27.9803 152.997C26.151 194.538 26.962 235.193 27.8608 260.354C28.105 267.187 33.6603 272.727 40.8453 272.727H61.807C67.9746 272.727 73.3507 268.469 74.8465 262.398L91.5473 194.624C96.0348 176.412 112.163 163.636 130.666 163.636H169.334C187.836 163.636 203.965 176.412 208.452 194.624L225.154 262.398C226.65 268.469 232.025 272.727 238.193 272.727H259.155C266.339 272.727 271.894 267.187 272.139 260.354C273.038 235.193 273.849 194.538 272.019 152.997C270.174 111.073 265.683 69.7024 256.549 42.3543C253.593 33.5056 244.037 27.2727 230.646 27.2727H69.3549Z" fill="#0F0F0F"/>
</svg>
