<svg width="259" height="259" viewBox="0 0 259 259" fill="none" xmlns="http://www.w3.org/2000/svg">
<circle cx="129.5" cy="129.5" r="129.5" fill="#24202A"/>
<path d="M83.5974 77.3391C83.9347 71.3732 85.3598 68.7788 89.4466 66.6955C93.8439 64.4532 100.779 65.4967 108.94 69.6293C112.455 71.4101 112.813 71.4464 118.974 70.6566C127.162 69.6064 137.703 69.6101 145.261 70.6662C150.976 71.4648 151.351 71.4249 154.875 69.6404C166.459 63.7743 175.604 64.1581 178.916 70.6491C180.569 73.8891 180.876 82.2962 179.594 89.2303C178.884 93.0744 178.959 93.5544 180.671 96.077C192.716 113.827 184.037 142.598 163.397 153.336C161.818 154.157 160.487 154.666 159.402 155.08C156.071 156.352 155.06 156.738 156.285 162.592C156.874 165.408 157.584 172.409 157.863 178.151C158.368 188.53 158.36 188.602 156.54 190.72C154.062 193.6 150.491 193.649 148.071 190.835C146.493 189 146.339 188.134 146.339 181.055C146.339 170.593 145.192 163.64 142.483 157.681C139.261 150.59 141.65 147.946 149.018 146.362C159.259 144.159 167.258 137.838 171.716 128.426C175.955 119.479 176.594 107.115 168.931 99.5958C166.751 97.0059 166.6 94.66 168.156 87.5862C168.737 84.9424 169.225 81.5316 169.239 80.0059C169.261 77.5964 169.042 77.2326 167.562 77.2326C166.626 77.2326 163.048 78.5948 159.612 80.2595L154.128 82.9173C153.63 83.1589 153.072 83.2518 152.522 83.1887C138.578 81.5882 125.329 81.5635 111.318 83.1949C110.765 83.2592 110.205 83.1663 109.705 82.9235L104.224 80.264C100.788 78.5963 97.2103 77.2326 96.2741 77.2326C94.1094 77.2326 94.0768 78.8307 96.0499 88.3258C97.2552 94.1247 98.0663 95.4168 94.582 100.054C89.3593 107.004 88.0547 115.634 90.8554 124.702C94.3852 136.129 103.029 143.849 115.181 146.424C122.507 147.977 124.422 150.003 121.624 158.403C119.422 165.014 118.03 166.718 114.83 166.718C110.524 166.718 107.827 162.988 109.312 159.085C109.965 157.365 109.771 157.181 105.737 155.71C93.4246 151.221 84.0072 141.159 79.7015 127.892C76.3736 117.638 77.8379 104.291 83.1767 96.2242C84.9945 93.4775 85.0226 93.2445 84.1743 87.9863C83.6943 85.0097 83.4348 80.2189 83.5974 77.3391Z" fill="#CCFF00"/>
<path d="M79.2982 152.35C77.524 149.689 73.9281 148.97 71.2666 150.744C68.6052 152.518 67.886 156.114 69.6603 158.776C70.9702 160.741 72.5373 162.355 73.868 163.685C74.1134 163.931 74.3517 164.168 74.5845 164.399C75.6992 165.506 76.6835 166.484 77.672 167.645C79.8584 170.211 82.0396 173.667 83.2792 179.866C83.8314 182.626 85.8159 184.114 86.9155 184.764C88.1081 185.468 89.411 185.883 90.4832 186.154C92.6766 186.707 95.3392 186.994 97.8661 187.161C100.64 187.345 103.646 187.405 106.333 187.421C106.335 190.618 108.928 193.209 112.125 193.209C115.324 193.209 117.917 190.616 117.917 187.417V181.626C117.917 178.427 115.324 175.834 112.125 175.834C111.579 175.834 110.988 175.836 110.363 175.838C106.964 175.848 102.534 175.862 98.6317 175.603C96.7501 175.479 95.2034 175.302 94.0692 175.086C92.3225 168.229 89.5008 163.667 86.4897 160.133C85.1587 158.571 83.7804 157.204 82.6593 156.092C82.4494 155.884 82.2486 155.685 82.0587 155.495C80.7651 154.201 79.9189 153.282 79.2982 152.35Z" fill="#CCFF00"/>
</svg>
