<svg width="259" height="259" viewBox="0 0 259 259" fill="none" xmlns="http://www.w3.org/2000/svg">
<circle cx="129.5" cy="129.5" r="129.5" fill="#24202A"/>
<g clip-path="url(#clip0_924_32)">
<path d="M96.4844 107.486H73.0938V189H96.4844V107.486Z" fill="#CCFF00"/>
<path d="M84.2969 69C75.6719 69 70 75.074 70 83.1387C70 91.0502 75.4844 97.2773 83.9688 97.2773H84.1562C92.9687 97.2773 98.4531 90.9992 98.4063 83.1387C98.2188 75.074 92.9219 69 84.2969 69Z" fill="#CCFF00"/>
<path d="M160.375 106.72C146.969 106.72 138.578 114.683 137.031 120.297V107.486H110.734C111.062 114.274 110.734 189 110.734 189H137.031V144.951C137.031 142.45 136.938 140 137.594 138.264C139.375 133.364 143.266 128.26 150.25 128.26C159.391 128.26 163.516 135.814 163.516 146.839V189H190.047V143.675C190.047 118.46 177.016 106.72 160.375 106.72Z" fill="#CCFF00"/>
</g>
<defs>
<clipPath id="clip0_924_32">
<rect width="120" height="120" fill="white" transform="translate(70 69)"/>
</clipPath>
</defs>
</svg>
