<svg width="207" height="300" viewBox="0 0 207 300" fill="none" xmlns="http://www.w3.org/2000/svg">
<path d="M182.812 0H23.4375C17.2215 0 11.2601 2.4693 6.86468 6.86468C2.4693 11.2601 0 17.2215 0 23.4375V276.562C0 282.779 2.4693 288.74 6.86468 293.135C11.2601 297.531 17.2215 300 23.4375 300H182.812C189.029 300 194.99 297.531 199.385 293.135C203.781 288.74 206.25 282.779 206.25 276.562V23.4375C206.25 17.2215 203.781 11.2601 199.385 6.86468C194.99 2.4693 189.029 0 182.812 0ZM182.812 276.562H23.4375V23.4375H182.812V276.562Z" fill="#0F0F0F"/>
<path d="M103.125 253.125C111.409 253.125 118.125 246.829 118.125 239.062C118.125 231.296 111.409 225 103.125 225C94.8407 225 88.125 231.296 88.125 239.062C88.125 246.829 94.8407 253.125 103.125 253.125Z" fill="#0F0F0F"/>
</svg>
