<svg width="259" height="259" viewBox="0 0 259 259" fill="none" xmlns="http://www.w3.org/2000/svg">
<circle cx="129.5" cy="129.5" r="129.5" fill="#24202A"/>
<path d="M156.852 141.432C155.373 140.672 148.002 137.061 146.631 136.572C145.26 136.056 144.255 135.812 143.264 137.332C142.26 138.839 139.409 142.192 138.513 143.21C137.645 144.214 136.762 144.337 135.283 143.59C126.487 139.192 120.718 135.744 114.921 125.794C113.387 123.147 116.455 123.337 119.319 117.623C119.808 116.618 119.564 115.763 119.184 115.003C118.804 114.243 115.817 106.885 114.568 103.885C113.36 100.967 112.112 101.374 111.202 101.32C110.333 101.266 109.342 101.266 108.338 101.266C107.333 101.266 105.718 101.646 104.347 103.125C102.976 104.632 99.1074 108.256 99.1074 115.614C99.1074 122.971 104.469 130.097 105.202 131.102C105.962 132.106 115.749 147.201 130.776 153.703C140.278 157.802 143.997 158.155 148.748 157.449C151.64 157.015 157.599 153.839 158.834 150.323C160.069 146.821 160.069 143.821 159.703 143.196C159.336 142.531 158.332 142.151 156.852 141.432Z" fill="#CCFF00"/>
<path d="M185.588 105.935C182.521 98.6458 178.123 92.103 172.516 86.4833C166.91 80.8771 160.368 76.4655 153.065 73.4113C145.599 70.2757 137.671 68.6875 129.5 68.6875H129.228C121.002 68.7282 113.034 70.3571 105.541 73.5606C98.3062 76.6556 91.8178 81.0536 86.2659 86.6598C80.7141 92.2659 76.3567 98.7815 73.3433 106.044C70.2212 113.564 68.6466 121.559 68.6873 129.785C68.728 139.206 70.9813 148.558 75.2029 156.92V177.553C75.2029 181.001 77.9992 183.797 81.4471 183.797H102.093C110.455 188.018 119.808 190.272 129.228 190.312H129.513C137.644 190.312 145.531 188.738 152.956 185.657C160.218 182.629 166.747 178.286 172.34 172.734C177.946 167.182 182.358 160.694 185.439 153.458C188.643 145.966 190.272 137.997 190.312 129.771C190.353 121.505 188.751 113.482 185.588 105.935ZM165.078 165.39C155.562 174.811 142.938 179.996 129.5 179.996H129.269C121.084 179.955 112.953 177.919 105.772 174.091L104.632 173.48H85.5193V154.368L84.9085 153.228C81.0806 146.047 79.0444 137.916 79.0037 129.731C78.9494 116.197 84.1212 103.492 93.6096 93.922C103.084 84.3521 115.749 79.0582 129.283 79.0039H129.513C136.3 79.0039 142.884 80.3206 149.087 82.9269C155.141 85.4652 160.571 89.1167 165.241 93.7862C169.897 98.4422 173.562 103.885 176.1 109.94C178.733 116.211 180.05 122.862 180.023 129.731C179.942 143.251 174.634 155.915 165.078 165.39Z" fill="#CCFF00"/>
</svg>
